<?xml version="1.0" encoding="utf-8"?>
<!-- Generator: Adobe Illustrator 19.0.1, SVG Export Plug-In . SVG Version: 6.00 Build 0)  -->
<svg version="1.1" id="Capa_1" xmlns="http://www.w3.org/2000/svg" xmlns:xlink="http://www.w3.org/1999/xlink" x="0px" y="0px"
	 viewBox="-59 183.8 475.1 475.1" style="enable-background:new -59 183.8 475.1 475.1;" xml:space="preserve">
<style type="text/css">
	.st0{fill:#FFFFFF;}
</style>
<g>
	<g>
		<path class="st0" d="M306.4,585.8c0,10.1,3.6,18.7,10.7,25.8c7.1,7.1,15.7,10.7,25.8,10.7c10.1,0,18.7-3.6,25.8-10.7
			c7.1-7.1,10.7-15.7,10.7-25.8s-3.6-18.7-10.7-25.8c-7.1-7.1-15.7-10.7-25.8-10.7c-10.1,0-18.7,3.6-25.8,10.7
			C310,567.1,306.4,575.7,306.4,585.8z"/>
		<path class="st0" d="M410.7,262.3c-3.6-3.6-7.9-5.4-12.8-5.4H54.9c-0.2-1.3-0.6-3.8-1.3-7.3c-0.7-3.5-1.2-6.3-1.6-8.4
			c-0.4-2.1-1.1-4.6-2.1-7.6c-1-3-2.3-5.3-3.7-7c-1.4-1.7-3.3-3.2-5.7-4.4c-2.4-1.2-5.1-1.9-8.1-1.9h-73.1c-5,0-9.2,1.8-12.9,5.4
			c-3.6,3.6-5.4,7.9-5.4,12.8c0,4.9,1.8,9.2,5.4,12.8c3.6,3.6,7.9,5.4,12.9,5.4h58.2l50.5,235c-0.4,0.8-2.3,4.4-5.9,10.8
			c-3.5,6.5-6.3,12.1-8.4,17c-2.1,4.9-3.1,8.6-3.1,11.3c0,4.9,1.8,9.2,5.4,12.9c3.6,3.6,7.9,5.4,12.9,5.4h18.3H343h18.3
			c4.9,0,9.2-1.8,12.8-5.4c3.6-3.6,5.4-7.9,5.4-12.9c0-4.9-1.8-9.2-5.4-12.8c-3.6-3.6-7.9-5.4-12.8-5.4H98.6
			c4.6-9.1,6.9-15.2,6.9-18.3c0-1.9-0.2-4-0.7-6.3s-1-4.8-1.7-7.6c-0.7-2.8-1.1-4.8-1.3-6.1l298.1-34.8c4.8-0.6,8.7-2.6,11.7-6.1
			c3-3.5,4.6-7.6,4.6-12.1V275.2C416.1,270.2,414.3,265.9,410.7,262.3z"/>
		<path class="st0" d="M50.6,585.8c0,10.1,3.6,18.7,10.7,25.8c7.1,7.1,15.8,10.7,25.8,10.7c10.1,0,18.7-3.6,25.8-10.7
			c7.1-7.1,10.7-15.7,10.7-25.8s-3.6-18.7-10.7-25.8c-7.1-7.1-15.8-10.7-25.8-10.7c-10.1,0-18.7,3.6-25.8,10.7
			C54.2,567.1,50.6,575.7,50.6,585.8z"/>
	</g>
</g>
</svg>
