<?xml version="1.0" encoding="utf-8"?>
<!-- Generator: Adobe Illustrator 22.1.0, SVG Export Plug-In . SVG Version: 6.00 Build 0)  -->
<svg version="1.1" id="Режим_изоляции"
	 xmlns="http://www.w3.org/2000/svg" xmlns:xlink="http://www.w3.org/1999/xlink" x="0px" y="0px" viewBox="206.5 401.1 17 15.1"
	 style="enable-background:new 206.5 401.1 17 15.1;" xml:space="preserve">
<g>
	<path d="M215,416.3c-0.2,0-0.5-0.1-0.7-0.2c-0.7-0.6-1.3-1.2-1.9-1.7l0,0c-1.7-1.5-3.2-2.7-4.2-4c-1.2-1.4-1.7-2.7-1.7-4.1
		c0-1.4,0.5-2.7,1.3-3.6c0.9-1,2.1-1.5,3.4-1.5c1,0,1.9,0.3,2.7,0.9c0.4,0.3,0.8,0.7,1.1,1.1c0.3-0.4,0.7-0.8,1.1-1.1
		c0.8-0.6,1.7-0.9,2.7-0.9c1.3,0,2.5,0.5,3.4,1.5c0.9,0.9,1.3,2.2,1.3,3.6c0,1.4-0.5,2.8-1.7,4.1c-1,1.2-2.5,2.5-4.2,4
		c-0.6,0.5-1.2,1.1-1.9,1.7C215.5,416.2,215.2,416.3,215,416.3z M211.2,402.1c-1,0-2,0.4-2.7,1.2c-0.7,0.8-1.1,1.8-1.1,3
		c0,1.2,0.4,2.3,1.5,3.5c1,1.2,2.4,2.4,4.1,3.8l0,0c0.6,0.5,1.3,1.1,1.9,1.7c0.7-0.6,1.4-1.2,1.9-1.7c1.7-1.4,3.1-2.7,4.1-3.8
		c1-1.2,1.5-2.3,1.5-3.5c0-1.1-0.4-2.2-1.1-3c-0.7-0.7-1.6-1.2-2.7-1.2c-0.8,0-1.4,0.2-2.1,0.7c-0.5,0.4-0.9,1-1.1,1.3
		c-0.1,0.2-0.3,0.3-0.5,0.3c-0.2,0-0.4-0.1-0.5-0.3c-0.2-0.4-0.6-0.9-1.1-1.3C212.7,402.4,212,402.1,211.2,402.1z"/>
	<path d="M215,416.3c-0.2,0-0.5-0.1-0.7-0.2c-0.7-0.6-1.3-1.1-1.9-1.7l0,0c-1.7-1.5-3.2-2.7-4.2-4c-1.2-1.4-1.7-2.7-1.7-4.1
		c0-1.4,0.5-2.7,1.3-3.6c0.9-1,2.1-1.5,3.4-1.5c1,0,1.9,0.3,2.7,0.9c0.4,0.3,0.8,0.7,1.1,1.1c0.3-0.4,0.7-0.8,1.1-1.1
		c0.8-0.6,1.7-0.9,2.7-0.9c1.3,0,2.5,0.5,3.4,1.5c0.9,0.9,1.3,2.2,1.3,3.6c0,1.4-0.5,2.8-1.7,4.1c-1,1.2-2.5,2.5-4.2,4l0,0
		c-0.6,0.5-1.2,1.1-1.9,1.6C215.5,416.2,215.2,416.3,215,416.3z M211.2,401.1c-1.3,0-2.5,0.5-3.4,1.5c-0.9,0.9-1.3,2.2-1.3,3.6
		c0,1.4,0.5,2.8,1.7,4.1c1,1.2,2.5,2.5,4.2,4l0,0c0.6,0.5,1.3,1.1,1.9,1.7c0.2,0.2,0.4,0.2,0.7,0.2s0.5-0.1,0.7-0.2
		c0.7-0.6,1.3-1.2,1.9-1.6l0,0c1.7-1.5,3.2-2.7,4.2-4c1.1-1.4,1.7-2.7,1.7-4.1c0-1.4-0.5-2.7-1.3-3.6c-0.9-1-2.1-1.5-3.4-1.5
		c-1,0-1.9,0.3-2.7,0.9c-0.4,0.3-0.8,0.7-1.1,1.1l0,0l0,0c-0.3-0.4-0.7-0.8-1.1-1.1C213.1,401.4,212.2,401.1,211.2,401.1z
		 M215,415.3L215,415.3c-0.7-0.6-1.3-1.2-1.9-1.7l0,0c-1.7-1.4-3.1-2.7-4.1-3.8c-1-1.2-1.5-2.3-1.5-3.5c0-1.1,0.4-2.2,1.1-3
		c0.7-0.7,1.6-1.2,2.7-1.2c0.8,0,1.5,0.2,2.1,0.7c0.5,0.4,0.9,1,1.2,1.3c0.1,0.2,0.3,0.3,0.5,0.3s0.4-0.1,0.5-0.3
		c0.2-0.4,0.6-0.9,1.2-1.3c0.6-0.5,1.3-0.7,2.1-0.7c1,0,2,0.4,2.7,1.2c0.7,0.8,1.1,1.8,1.1,3c0,1.2-0.4,2.3-1.5,3.5
		c-1,1.2-2.4,2.4-4.1,3.8l0,0C216.3,414.1,215.7,414.7,215,415.3L215,415.3z M211.2,402.1c-1,0-2,0.4-2.7,1.2
		c-0.7,0.8-1.1,1.8-1.1,3c0,1.2,0.4,2.3,1.5,3.5c1,1.2,2.4,2.4,4.1,3.8l0,0c0.6,0.5,1.2,1.1,1.9,1.6c0.7-0.6,1.3-1.1,1.9-1.7l0,0
		c1.7-1.4,3.1-2.7,4.1-3.8c1-1.2,1.5-2.3,1.5-3.5c0-1.1-0.4-2.2-1.1-3c-0.7-0.7-1.6-1.2-2.7-1.2c-0.8,0-1.4,0.2-2.1,0.7
		c-0.5,0.4-0.9,1-1.1,1.3c-0.1,0.2-0.3,0.3-0.5,0.3s-0.4-0.1-0.5-0.3c-0.2-0.4-0.6-0.9-1.1-1.3C212.7,402.4,212,402.1,211.2,402.1z"
		/>
</g>
</svg>
