<?xml version="1.0" encoding="utf-8"?>
<!-- Generator: Adobe Illustrator 22.1.0, SVG Export Plug-In . SVG Version: 6.00 Build 0)  -->
<svg version="1.1" id="Capa_1" xmlns="http://www.w3.org/2000/svg" xmlns:xlink="http://www.w3.org/1999/xlink" x="0px" y="0px"
	 viewBox="286.6 412.5 20 17.5" style="enable-background:new 286.6 412.5 20 17.5;" xml:space="preserve">
<g>
	<g>
		<path d="M300.2,420.8C300.1,420.8,300.1,420.8,300.2,420.8c-0.3-0.3,0.1-0.3,0.1-0.3h0.5l4.1,0h0.2c0,0,0.4,0,0.1,0.2c0,0,0,0,0,0
			c0,0,0,0-0.1,0.1c0,0,0,0,0,0c0,0,0,0-0.1,0.1c-0.5,0.4-1.3,0.9-2.3,0.9C301.5,421.8,300.7,421.2,300.2,420.8L300.2,420.8z
			 M299.9,419.9c-0.4,0-0.3-0.3-0.3-0.4l0-0.1c0,0,0,0,0,0l2.7-5.2c0,0,0.2-0.4,0.4,0l2.7,5.2c0.1,0.1,0.2,0.5-0.2,0.5L299.9,419.9
			C299.9,419.9,299.9,419.9,299.9,419.9L299.9,419.9z M293.6,419.4L293.6,419.4L293.6,419.4c0.1,0.2,0.2,0.5,0,0.5l-5.9,0l0,0
			c-0.2,0-0.2-0.2-0.1-0.3l0.1-0.2l0,0l0,0l2.8-5.3c0,0,0.1-0.2,0.3,0h0L293.6,419.4L293.6,419.4z M293.1,420.8
			c-0.5,0.4-1.4,0.9-2.4,1c0,0,0,0-0.1,0c0,0,0,0,0,0c0,0-0.1,0-0.1,0c0,0,0,0-0.1,0c-1,0-1.9-0.6-2.4-1h0c0,0-0.4-0.3,0-0.3h0.5
			l4.1,0h0.4C293.1,420.5,293.5,420.6,293.1,420.8L293.1,420.8z M306.5,419.6L306.5,419.6L306.5,419.6l-0.1-0.1l0,0l-3.3-6.3
			c-0.1-0.2-0.4-0.6-1-0.6H291c-0.7,0-1,0.7-1,0.7l-3.3,6.2c0,0,0,0,0,0l0,0c-0.1,0.1-0.2,0.4-0.1,0.7c0.8,1.3,2.3,2.2,4,2.2
			c1.7,0,3.1-0.9,3.9-2.2c0.1-0.3-0.1-0.7-0.1-0.7l-3.1-5.9l0,0l0-0.1c0-0.1-0.1-0.3,0.3-0.3h4c0.1,0,0.4,0.1,0.4,0.6v13.9
			c0,0.1-0.1,0.4-0.3,0.6l-2,1.3c0,0-0.5,0.3,0,0.3h5.7c0.4,0,0-0.3,0-0.3l-2.1-1.3c0,0,0,0,0,0c-0.3-0.2-0.4-0.5-0.4-0.6v-14
			c0-0.5,0.3-0.5,0.5-0.5h4c0.1,0,0.4,0,0.2,0.4l-3.1,5.9c0,0-0.1,0.2,0,0.5c0.8,1.3,2.3,2.2,4,2.2c1.7,0,3.2-0.9,4-2.2
			C306.7,419.9,306.6,419.7,306.5,419.6L306.5,419.6z"/>
	</g>
</g>
</svg>
